<svg xmlns="http://www.w3.org/2000/svg" viewBox="0 0 1200 800" width="1200" height="800" style="background:#07080a; font-family: -apple-system, BlinkMacSystemFont, 'Segoe UI', sans-serif;">
  <defs>
    <linearGradient id="topLine" x1="0%" y1="0%" x2="100%" y2="0%">
      <stop offset="0%" stop-color="#f59e0b"/>
      <stop offset="40%" stop-color="#d97706"/>
      <stop offset="100%" stop-color="#1e2432"/>
    </linearGradient>
  </defs>

  <!-- Title -->
  <text x="40" y="44" fill="#f3f5f9" font-size="20" font-weight="700">Grok Recent Launcher · 监视页 (Watch) 交互线框图</text>
  <text x="40" y="68" fill="#64748b" font-size="12">特色：状态呼吸脉冲 · 手风琴平滑展开 · 结构化工具调用流水线 · 危险操作防误触气泡反馈</text>

  <!-- Container -->
  <rect x="40" y="90" width="1120" height="670" rx="8" fill="#0c0e12" stroke="#232936" stroke-width="1.5"/>
  <rect x="40" y="90" width="1120" height="2.5" fill="url(#topLine)"/>

  <!-- Header -->
  <rect x="40" y="92.5" width="1120" height="60" fill="#0c0e12"/>
  <line x1="40" y1="152.5" x2="1160" y2="152.5" stroke="#1c222e" stroke-width="1"/>
  <text x="64" y="130" fill="#f3f5f9" font-size="18" font-weight="600">监视 Grok 窗口</text>
  <rect x="200" y="116" width="46" height="18" rx="3" fill="#161b24" stroke="#242c3b" stroke-width="1"/>
  <text x="208" y="129" fill="#94a3b8" font-size="10" font-family="monospace">v1.8.1</text>
  <text x="260" y="129" fill="#64748b" font-size="12">点开一行展开正在执行的工具和最近动作</text>

  <!-- Nav Tabs -->
  <rect x="880" y="108" width="256" height="34" rx="6" fill="#131720" stroke="#232936"/>
  <rect x="1008" y="111" width="64" height="28" rx="4" fill="#1e2432" stroke="#323b4e"/>
  <text x="898" y="129" fill="#94a3b8" font-size="12">仪表盘</text>
  <text x="962" y="129" fill="#94a3b8" font-size="12">项目</text>
  <text x="1018" y="129" fill="#f3f5f9" font-size="12" font-weight="600">监视</text>
  <rect x="1052" y="118" width="14" height="14" rx="7" fill="#064e3b"/>
  <text x="1056" y="129" fill="#10b981" font-size="9" font-family="monospace">4</text>
  <text x="1086" y="129" fill="#94a3b8" font-size="12">关于</text>

  <!-- Status Bar Strip -->
  <rect x="64" y="168" width="1072" height="36" rx="4" fill="#131720" stroke="#232936"/>
  <circle cx="82" cy="186" r="4" fill="#10b981"/>
  <text x="94" y="190" fill="#94a3b8" font-size="11" font-family="monospace">1 个工作中</text>
  <circle cx="180" cy="186" r="4" fill="#38bdf8"/>
  <text x="192" y="190" fill="#94a3b8" font-size="11" font-family="monospace">1 个刚创建</text>
  <circle cx="280" cy="186" r="4" fill="#64748b"/>
  <text x="292" y="190" fill="#94a3b8" font-size="11" font-family="monospace">2 个空闲</text>
  <text x="760" y="190" fill="#64748b" font-size="11">状态点：绿 = 工作中，灰 = 空闲。Context 是上下文占用。</text>

  <!-- Card 1: Expanded -->
  <rect x="64" y="216" width="1072" height="240" rx="6" fill="#131720" stroke="#384357" stroke-width="1.5"/>

  <!-- Card 1 Header (H: 52px) -->
  <rect x="64" y="216" width="1072" height="52" rx="6" fill="#181e2b"/>
  <circle cx="86" cy="242" r="4" fill="#10b981"/>
  <circle cx="86" cy="242" r="7" fill="none" stroke="#10b981" stroke-opacity="0.4"/>
  <!-- Chevron expanded (v) -->
  <path d="M102 239 L107 244 L112 239" stroke="#94a3b8" stroke-width="1.8" fill="none"/>
  <text x="124" y="246" fill="#f3f5f9" font-size="14" font-weight="600">shop-web</text>
  <rect x="200" y="233" width="52" height="18" rx="3" fill="#064e3b"/>
  <text x="208" y="246" fill="#34d399" font-size="10" font-family="monospace" font-weight="600">工作中</text>
  <text x="264" y="246" fill="#64748b" font-size="11" font-family="monospace">PID 4101  ·  正在执行 search_replace  ·  最后活动 刚刚  ·  运行 4 分钟  ·  Context 62%</text>
  <!-- Mini track -->
  <rect x="740" y="240" width="48" height="4" rx="2" fill="#1c222e"/>
  <rect x="740" y="240" width="30" height="4" rx="2" fill="#f59e0b"/>

  <!-- Action Buttons -->
  <rect x="910" y="230" width="56" height="24" rx="3" fill="#222a38" stroke="#323e52"/>
  <text x="926" y="246" fill="#f3f5f9" font-size="11">打开</text>
  <rect x="974" y="230" width="56" height="24" rx="3" fill="#222a38" stroke="#323e52"/>
  <text x="990" y="246" fill="#f3f5f9" font-size="11">终端</text>
  <rect x="1038" y="230" width="56" height="24" rx="3" fill="#2a1215" stroke="#f43f5e" stroke-opacity="0.4"/>
  <text x="1054" y="246" fill="#f43f5e" font-size="11">结束</text>

  <!-- Expanded Details Grid -->
  <line x1="64" y1="268" x2="1136" y2="268" stroke="#232936"/>

  <!-- Left Detail Col -->
  <text x="88" y="294" fill="#64748b" font-size="10" font-weight="600">实时执行流</text>
  <rect x="88" y="304" width="480" height="34" rx="4" fill="#1c160c" stroke="#f59e0b" stroke-opacity="0.3"/>
  <text x="104" y="325" fill="#f59e0b" font-size="11" font-family="monospace">▶ 正在执行：search_replace · src/components/OrderList.vue</text>
  <text x="88" y="360" fill="#94a3b8" font-size="11">标题：<tspan fill="#f3f5f9">Empty state for the order list</tspan></text>
  <text x="88" y="380" fill="#94a3b8" font-size="11">摘要：<tspan fill="#f3f5f9">正在修改订单列表为空时的视觉提示与无障碍属性</tspan></text>
  <text x="88" y="400" fill="#64748b" font-size="10" font-family="monospace">工作目录: D:\Work\shop-web  ·  会话ID: demo-4101</text>

  <!-- Right Detail Col (Tool Timeline) -->
  <text x="600" y="294" fill="#64748b" font-size="10" font-weight="600">最近工具调用流水线</text>
  <rect x="600" y="304" width="116" height="22" rx="3" fill="#161b24" stroke="#252d3d"/>
  <text x="608" y="319" fill="#10b981" font-size="10" font-family="monospace">✓ read_file</text>
  <rect x="724" y="304" width="134" height="22" rx="3" fill="#161b24" stroke="#252d3d"/>
  <text x="732" y="319" fill="#10b981" font-size="10" font-family="monospace">✓ ripgrep_search</text>
  <rect x="866" y="304" width="150" height="22" rx="3" fill="#161b24" stroke="#252d3d"/>
  <text x="874" y="319" fill="#10b981" font-size="10" font-family="monospace">✓ terminal_cmd</text>
  <rect x="600" y="332" width="144" height="22" rx="3" fill="#221a0f" stroke="#f59e0b" stroke-opacity="0.4"/>
  <text x="608" y="347" fill="#f59e0b" font-size="10" font-family="monospace">⋯ search_replace</text>

  <!-- Metadata Summary Strip -->
  <rect x="600" y="370" width="500" height="34" rx="4" fill="#0f1218" stroke="#1f2532"/>
  <text x="616" y="391" fill="#64748b" font-size="11" font-family="monospace">模型 <tspan fill="#f3f5f9">grok-4.6</tspan>  ·  工具 <tspan fill="#f3f5f9">18 次</tspan>  ·  回合 <tspan fill="#f3f5f9">4 轮</tspan>  ·  Token <tspan fill="#f3f5f9">1.24 M</tspan>  ·  Context <tspan fill="#f3f5f9">62%</tspan></text>

  <!-- Card 2: Idle & Collapsed -->
  <rect x="64" y="468" width="1072" height="52" rx="6" fill="#131720" stroke="#232936"/>
  <circle cx="86" cy="494" r="4" fill="#64748b"/>
  <!-- Chevron collapsed (>) -->
  <path d="M104 490 L109 494 L104 498" stroke="#64748b" stroke-width="1.8" fill="none"/>
  <text x="124" y="498" fill="#f3f5f9" font-size="14" font-weight="600">wiki-site</text>
  <rect x="194" y="485" width="40" height="18" rx="3" fill="#1e2430"/>
  <text x="202" y="498" fill="#94a3b8" font-size="10" font-family="monospace">空闲</text>
  <text x="250" y="498" fill="#64748b" font-size="11" font-family="monospace">PID 4103  ·  上一轮写完  ·  最后活动 18 分钟前  ·  运行 18 分钟  ·  Context 44%</text>
  <rect x="690" y="492" width="48" height="4" rx="2" fill="#1c222e"/>
  <rect x="690" y="492" width="21" height="4" rx="2" fill="#f59e0b"/>

  <rect x="910" y="482" width="56" height="24" rx="3" fill="#1a202c" stroke="#2d3748"/>
  <text x="926" y="498" fill="#f3f5f9" font-size="11">打开</text>
  <rect x="974" y="482" width="56" height="24" rx="3" fill="#1a202c" stroke="#2d3748"/>
  <text x="990" y="498" fill="#f3f5f9" font-size="11">终端</text>
  <rect x="1038" y="482" width="56" height="24" rx="3" fill="#1a202c" stroke="#2d3748"/>
  <text x="1054" y="498" fill="#f43f5e" font-size="11">结束</text>

  <!-- Card 3: Created -->
  <rect x="64" y="530" width="1072" height="52" rx="6" fill="#131720" stroke="#232936"/>
  <circle cx="86" cy="556" r="4" fill="#38bdf8"/>
  <path d="M104 552 L109 556 L104 560" stroke="#64748b" stroke-width="1.8" fill="none"/>
  <text x="124" y="560" fill="#f3f5f9" font-size="14" font-weight="600">notes-app</text>
  <rect x="206" y="547" width="52" height="18" rx="3" fill="#082f49"/>
  <text x="214" y="560" fill="#38bdf8" font-size="10" font-family="monospace">刚创建</text>
  <text x="274" y="560" fill="#64748b" font-size="11" font-family="monospace">PID 4102  ·  等待第一条指令  ·  最后活动 刚刚  ·  运行 12 秒  ·  Context 8%</text>

  <rect x="910" y="544" width="56" height="24" rx="3" fill="#1a202c" stroke="#2d3748"/>
  <text x="926" y="560" fill="#f3f5f9" font-size="11">打开</text>
  <rect x="974" y="544" width="56" height="24" rx="3" fill="#1a202c" stroke="#2d3748"/>
  <text x="990" y="560" fill="#f3f5f9" font-size="11">终端</text>
  <rect x="1038" y="544" width="56" height="24" rx="3" fill="#1a202c" stroke="#2d3748"/>
  <text x="1054" y="560" fill="#f43f5e" font-size="11">结束</text>

  <!-- Footer -->
  <rect x="40" y="730" width="1120" height="30" fill="#090b0e"/>
  <line x1="40" y1="730" x2="1160" y2="730" stroke="#1c222e"/>
  <text x="64" y="750" fill="#64748b" font-size="10">4 个窗口 · 工作中 1 · 刚创建 1 · 空闲 2</text>
  <text x="900" y="750" fill="#64748b" font-size="10">点开卡片查看实时动作 · 结束按钮带二次校验</text>
</svg>
